<svg width="48" height="48" viewBox="0 0 48 48" fill="none" xmlns="http://www.w3.org/2000/svg">
<path d="M42.6 23.26L29.53 15.31L29.36 15.2C29.109 15.0719 28.8318 15.0034 28.55 15C28.2714 15.0035 27.9975 15.072 27.75 15.2L27.57 15.31L14.48 23.25C14.226 23.4105 14.0714 23.6895 14.07 23.99C14.0666 24.3021 14.2307 24.5922 14.5 24.75L27.59 32.69L27.77 32.79C28.0158 32.9225 28.2908 32.9913 28.57 32.99C28.8524 32.9917 29.1308 32.9229 29.38 32.79L29.55 32.69L42.6 24.75C42.8532 24.5852 43.0043 24.3021 43 24C43.0027 23.701 42.8517 23.4215 42.6 23.26Z" fill="#123B6D"/>
<path d="M15 12H24.05V20H15V12Z" fill="#0078D4"/>
<path d="M24.05 12H33V20H24.05V12Z" fill="#28A8EA"/>
<path d="M33 12H42V20H33V12Z" fill="#50D9FF"/>
<path d="M33 20H42V28H33V20Z" fill="#28A8EA"/>
<path d="M24.05 20H33V28H24.05V20Z" fill="#0078D4"/>
<path d="M24.05 28H33V37H24.05V28Z" fill="#0364B8"/>
<path d="M15.16 27.7H24.05V35.11H15.16V27.7Z" fill="#14447D"/>
<path d="M33 28H42.05V36H33V28Z" fill="#0078D4"/>
<path d="M15.16 19.56H24.05V27.71H15.16V19.56Z" fill="#0364B8"/>
<path d="M42 12V7.91C42 7.5 41.9111 6.98038 41.5959 6.63142C41.2807 6.28247 40.8397 6.07327 40.37 6.05L16.7 6C16.2277 6.02075 15.7831 6.22849 15.4642 6.57742C15.1453 6.92634 14.9783 7.38779 15 7.86V12H42Z" fill="#0358A7"/>
<path opacity="0.5" d="M28 34.5L13 25.5V24L27.1138 31.0569C27.6722 31.3361 28.329 31.3385 28.8894 31.0635L43.002 24.137L43 25L28 34.5Z" fill="#0A2767"/>
<path d="M42.64 24.74L29.07 32.7L28.89 32.8C28.63 32.9327 28.3419 33.0013 28.05 33C27.7612 33.0017 27.4763 32.933 27.22 32.8L27.04 32.7L13.49 24.76C13.2262 24.6077 13.0655 24.3246 13.07 24.02V40.07C13.062 40.5756 13.2559 41.0636 13.6087 41.4259C13.9616 41.7881 14.4443 41.9947 14.95 42H41.18C41.6839 41.9921 42.1641 41.7843 42.5148 41.4224C42.8655 41.0604 43.008 40.5039 43 40V24C43.0066 24.3025 42.9 24.5852 42.64 24.74Z" fill="#1490DF"/>
<path d="M41.14 42C41.5602 41.9994 41.9696 41.8664 42.31 41.62L27.99 32.97L27.8 32.91L13.59 24.7L13 24V40C12.9999 41.093 13.9272 41.9836 15.02 42H41.14Z" fill="#28A8EA"/>
<path opacity="0.6" d="M15 14V13H23.33C24.2523 13 25 13.7477 25 14.67V33C25 34.1046 24.1046 35 23 35H13V34L15 14Z" fill="#0A2767"/>
<path d="M5.67 14H22.33C23.2523 14 24 14.7477 24 15.67V32.33C24 33.2523 23.2523 34 22.33 34H5.67C4.74768 34 4 33.2523 4 32.33V15.67C4 14.7477 4.74768 14 5.67 14Z" fill="#107AD5"/>
<path fill-rule="evenodd" clip-rule="evenodd" d="M11.12 18.97C10.2891 19.462 9.62668 20.1941 9.22001 21.07C8.76542 22.0324 8.53628 23.0857 8.55001 24.15C8.53259 25.1622 8.75896 26.1637 9.21001 27.07C9.62498 27.9047 10.275 28.5999 11.08 29.07C11.9482 29.5713 12.9377 29.8239 13.94 29.8C14.9592 29.8218 15.9651 29.566 16.85 29.06C17.6752 28.5699 18.3364 27.8461 18.75 26.98C19.2183 26.0252 19.4547 24.9734 19.44 23.91C19.4587 22.8686 19.2218 21.8386 18.75 20.91C18.3417 20.0887 17.7066 19.4016 16.92 18.93C16.0708 18.4366 15.1018 18.1875 14.12 18.21C13.0692 18.1829 12.0312 18.4458 11.12 18.97ZM12.29 27.39C11.8134 27.0328 11.4434 26.5521 11.22 26L11.19 26.02C10.6985 24.732 10.6985 23.308 11.19 22.02C11.4173 21.4589 11.7987 20.9736 12.29 20.62C12.7916 20.2732 13.3904 20.0947 14 20.11C14.6354 20.0863 15.2599 20.2803 15.77 20.66C16.2325 21.0361 16.5792 21.5353 16.77 22.1C16.987 22.727 17.0953 23.3865 17.09 24.05C17.0965 24.7088 16.9812 25.3631 16.75 25.98C16.5588 26.5306 16.2113 27.0137 15.75 27.37C15.2299 27.7342 14.6044 27.9169 13.97 27.89C13.3714 27.904 12.7836 27.729 12.29 27.39Z" fill="white"/>
</svg>
