<svg width="48" height="48" viewBox="0 0 48 48" fill="none" xmlns="http://www.w3.org/2000/svg">
<path d="M39 21L38.9998 21.0619C42.9462 21.5539 46 24.9203 46 29C46 33.4183 42.4183 37 38 37H11C6.02944 37 2 32.9706 2 28C2 24.0519 4.54214 20.6976 8.07883 19.4847C8.56629 16.3771 11.2555 14 14.5 14C15.3594 14 16.1799 14.1668 16.9308 14.4698C19.0703 11.1774 22.7809 9 27 9C33.6274 9 39 14.3726 39 21Z" fill="url(#paint0_radial_5129_496607)"/>
<path d="M21 20.5C21 24.0899 18.0899 27 14.5 27C10.9101 27 8 24.0899 8 20.5C8 16.9101 10.9101 14 14.5 14C18.0899 14 21 16.9101 21 20.5Z" fill="url(#paint1_radial_5129_496607)"/>
<circle cx="11" cy="28" r="9" fill="url(#paint2_radial_5129_496607)"/>
<path d="M30.7565 32.4003C30.2712 31.3684 30 30.2158 30 29C30 24.5817 33.5817 21 38 21C38.3386 21 38.6723 21.021 38.9998 21.0619C38.9731 26.3504 35.5254 30.8298 30.7565 32.4003Z" fill="url(#paint3_linear_5129_496607)"/>
<path d="M39.0015 21.0619C38.9748 26.3505 35.5269 30.83 30.7578 32.4004C32.036 35.1184 34.7989 37 38.0012 37C42.4195 37 46.0012 33.4182 46.0012 29C46.0012 24.9204 42.9477 21.5541 39.0015 21.0619Z" fill="url(#paint4_radial_5129_496607)"/>
<path d="M8.07883 19.4847C8.99481 19.1705 9.97749 19 11 19C14.8315 19 18.1038 21.3943 19.4024 24.7683C18.2107 26.1358 16.4563 27 14.5 27C10.9101 27 8 24.0899 8 20.5C8 20.1546 8.02694 19.8155 8.07883 19.4847Z" fill="url(#paint5_linear_5129_496607)"/>
<path d="M15.0449 19.9581C17.0317 20.9594 18.5967 22.6754 19.4022 24.7683C19.4022 24.7681 19.4022 24.7684 19.4022 24.7683C20.3975 23.6263 21.0003 22.1338 21.0003 20.5C21.0003 17.7695 19.3167 15.4323 16.9311 14.4697C15.8878 16.0751 15.218 17.9456 15.0449 19.9581Z" fill="url(#paint6_linear_5129_496607)"/>
<path d="M19.6517 30.4877C16.8216 28.2925 15 24.859 15 21C15 20.6489 15.0151 20.3012 15.0446 19.9578C17.9839 21.4389 20 24.484 20 27.9999C20 28.8629 19.8785 29.6976 19.6517 30.4877Z" fill="url(#paint7_linear_5129_496607)"/>
<defs>
<radialGradient id="paint0_radial_5129_496607" cx="0" cy="0" r="1" gradientUnits="userSpaceOnUse" gradientTransform="translate(3.04855 21.7016) rotate(6.15633) scale(43.4195 43.1749)">
<stop offset="0.0428094" stop-color="#B4E7FC"/>
<stop offset="0.365752" stop-color="#5CCBFC"/>
<stop offset="0.950149" stop-color="#3E8AF5"/>
</radialGradient>
<radialGradient id="paint1_radial_5129_496607" cx="0" cy="0" r="1" gradientUnits="userSpaceOnUse" gradientTransform="translate(15.2707 23.2192) rotate(-90.9544) scale(9.91321 8.18176)">
<stop offset="0.773397" stop-color="#70DCFC" stop-opacity="0"/>
<stop offset="1" stop-color="#7ED6F0"/>
</radialGradient>
<radialGradient id="paint2_radial_5129_496607" cx="0" cy="0" r="1" gradientUnits="userSpaceOnUse" gradientTransform="translate(12.0671 31.765) rotate(-90.8736) scale(14.3877 11.8747)">
<stop offset="0.773397" stop-color="#B3E6FB" stop-opacity="0"/>
<stop offset="1" stop-color="#89DDFF"/>
</radialGradient>
<linearGradient id="paint3_linear_5129_496607" x1="22.5062" y1="31.7961" x2="42.5502" y2="20.4883" gradientUnits="userSpaceOnUse">
<stop offset="0.57" stop-color="#4397F3" stop-opacity="0"/>
<stop offset="1" stop-color="#1C7EEA"/>
</linearGradient>
<radialGradient id="paint4_radial_5129_496607" cx="0" cy="0" r="1" gradientUnits="userSpaceOnUse" gradientTransform="translate(36.0955 19.6172) rotate(101.502) scale(9.36947 5.3885)">
<stop stop-color="#A0D4FF"/>
<stop offset="1" stop-color="#52AFFD" stop-opacity="0"/>
</radialGradient>
<linearGradient id="paint5_linear_5129_496607" x1="21.1959" y1="35.7684" x2="6.59985" y2="17.4764" gradientUnits="userSpaceOnUse">
<stop offset="0.53181" stop-color="#73CFF6" stop-opacity="0"/>
<stop offset="1" stop-color="#3BC0FA"/>
</linearGradient>
<linearGradient id="paint6_linear_5129_496607" x1="17.6265" y1="14.7405" x2="18.7672" y2="21.8127" gradientUnits="userSpaceOnUse">
<stop stop-color="#40B5FC"/>
<stop offset="1" stop-color="#5CCBFB" stop-opacity="0"/>
</linearGradient>
<linearGradient id="paint7_linear_5129_496607" x1="17.8195" y1="18.6756" x2="20.1427" y2="25.4906" gradientUnits="userSpaceOnUse">
<stop stop-color="#47C2FE"/>
<stop offset="1" stop-color="#59C2F9" stop-opacity="0"/>
</linearGradient>
</defs>
</svg>
