<svg width="48" height="48" viewBox="0 0 48 48" fill="none" xmlns="http://www.w3.org/2000/svg">
<path d="M5.00094 39.9992H11.9971V23.5273L2 16.2505V37.0902C1.99977 37.4722 2.07724 37.8506 2.22797 38.2037C2.3787 38.5567 2.59974 38.8775 2.87845 39.1476C3.15716 39.4178 3.48807 39.6321 3.85226 39.7782C4.21645 39.9243 4.60679 39.9994 5.00094 39.9992Z" fill="#4285F4"/>
<path d="M36.0029 39.9992H42.9991C43.7944 39.9974 44.5567 39.6904 45.1191 39.1452C45.6815 38.6 45.9982 37.8611 46 37.0902V16.2505L36.0029 23.5181V39.9992Z" fill="#34A853"/>
<path d="M36.0029 10.919V23.5181L46 16.2506V12.3694C46 8.7781 41.7676 6.72213 38.8019 8.88056L36.0029 10.919Z" fill="#FBBC04"/>
<path d="M11.9971 23.5272V10.919L24 19.6461L36.0029 10.919V23.5272L24 32.2451L11.9971 23.5272Z" fill="#EA4335"/>
<path d="M2 12.3777V16.2572L11.9971 23.5256V10.919L9.19813 8.88886C6.23242 6.73043 2 8.7864 2 12.3777Z" fill="#C5221F"/>
</svg>
